<svg width="279" height="49" viewBox="0 0 279 49" fill="none" xmlns="http://www.w3.org/2000/svg">
<path d="M16.9851 17.2964H12.1675V29.7687H18.4505V36.211H30.6874V25.1244C30.6874 25.1244 30.3333 18.2578 23.3721 18.0082V22.9333H25.723V21.0794C25.723 21.0794 27.9945 21.9781 28.2691 25.0867V33.8136H20.8504V27.3717H14.5488V19.7497H17.0035L16.9851 17.2964Z" fill="#ED1C24"/>
<path d="M17.3515 32.9152C17.3515 31.7565 16.433 30.8174 15.2997 30.8174C14.1667 30.8174 13.2483 31.7565 13.2483 32.9152C13.2483 34.0734 14.1667 35.0123 15.2997 35.0123C16.433 35.0123 17.3515 34.0734 17.3515 32.9152Z" fill="#345991"/>
<path d="M32.1711 29.8062H36.9888V17.3341H30.706V10.8921H18.4692V21.9781C18.4692 21.9781 18.8231 28.8448 25.7842 29.0945V24.1697H23.4333V26.0235C23.4333 26.0235 21.1618 25.1244 20.8871 22.0158V13.2889H28.3061V19.7309H34.6076V27.3529H32.1529L32.1711 29.8062Z" fill="#345991"/>
<path d="M31.8047 14.1879C31.8047 15.3462 32.7231 16.2854 33.8565 16.2854C34.9894 16.2854 35.9079 15.3462 35.9079 14.1879C35.9079 13.0295 34.9894 12.0903 33.8565 12.0903C32.7231 12.0903 31.8047 13.0295 31.8047 14.1879Z" fill="#ED1C24"/>
<path d="M47.2433 19.1765C47.2433 19.3694 47.2299 19.5232 47.2452 19.6732C47.5309 22.4501 47.2554 25.177 46.4413 27.8316C45.3688 31.3294 43.5857 34.4172 41.0923 37.0585C37.6208 40.7363 33.3707 42.8326 28.427 43.4538C26.1255 43.7431 23.84 43.5856 21.5673 43.0686C18.9665 42.4768 16.5506 41.4531 14.3735 39.9014C9.37597 36.3391 6.35927 31.4712 5.41557 25.3071C5.22829 24.0851 5.15415 22.8601 5.18666 21.6374C5.18666 21.6374 5.32421 18.5857 6.00662 16.3099C6.59694 14.2098 7.48499 12.2312 8.685 10.3936C10.7384 7.24907 13.4585 4.86369 16.7102 3.08743C18.6718 2.01584 20.7238 1.23212 22.9261 0.851535C24.6843 0.547692 26.4399 0.360532 28.2213 0.584207C28.4701 0.615304 28.7259 0.588204 29.0005 0.588204C20.1095 -1.51245 9.11225 1.94051 3.25279 12.1228C2.17379 13.9981 1.36382 16.0057 0.819103 18.0813C0.819103 18.0813 0.644685 18.7743 0.583847 19.0584C-1.14312 26.9217 0.938992 35.6183 7.12455 41.8661C14.7274 49.5456 26.6467 51.2623 36.1988 45.4288C45.6405 39.663 49.4079 28.6273 47.2433 19.1765Z" fill="#345991"/>
<path d="M45.6593 20.2431C45.6593 20.2431 45.5584 17.6791 44.5261 15.3066C44.0112 13.8778 43.3452 12.5158 42.4996 11.2368C39.2866 6.37446 34.8603 3.40962 29.2069 2.39654C27.4678 2.08498 25.7157 2.05388 23.9458 2.23676C21.5058 2.48897 19.2028 3.1754 17.03 4.30204C14.2616 5.73709 11.952 7.74417 10.0976 10.2984C8.906 11.9389 8.00403 13.6858 7.36413 15.5294L7.35996 15.5297C7.35996 15.5297 7.35343 15.5522 7.34286 15.5904C7.30854 15.6903 7.27168 15.789 7.23897 15.8889L7.26459 15.8803C7.02422 16.7955 6.3974 19.3898 6.2124 22.2123C6.22954 23.5288 6.43012 24.8264 6.70351 26.1164C6.80653 26.603 6.9621 27.0776 7.09346 27.5582C7.13465 27.5539 7.17576 27.5498 7.21695 27.5458C6.88012 25.8654 6.75366 24.2052 6.84437 22.5662C6.84437 22.5662 7.18612 18.626 8.75668 15.3708C10.1975 12.451 12.2975 10.087 15.0377 8.27966C18.1739 6.21126 21.6349 5.2187 25.3438 5.38703C31.4983 5.66605 36.7443 8.95954 39.7699 13.8273C39.7699 13.8273 42.1472 17.3775 42.4863 22.2767C42.4996 22.4545 42.5124 22.6321 42.5197 22.8116C42.7694 28.7607 40.636 33.7628 36.1934 37.6107C31.7407 41.4673 26.5424 42.6326 20.8156 41.6184C22.1044 41.9642 23.3866 42.3168 24.6905 42.4495C26.8296 42.6669 28.9599 42.4578 31.042 41.8846C33.5151 41.2041 35.8032 40.106 37.8368 38.513C42.1683 35.1196 44.7687 30.6544 45.5596 25.1294C45.7934 23.4948 45.8244 21.8626 45.6593 20.2431Z" fill="#ED1C24"/>
<path d="M69.3085 22.4306H65.1164C65.0867 22.0758 65.0075 21.7542 64.8786 21.4655C64.7547 21.1767 64.5814 20.9285 64.3583 20.7208C64.1404 20.5081 63.8752 20.346 63.5631 20.2345C63.2509 20.118 62.8965 20.0598 62.5001 20.0598C61.8065 20.0598 61.2194 20.232 60.7386 20.5765C60.2631 20.9209 59.9012 21.4148 59.6536 22.0582C59.4108 22.7015 59.2894 23.4741 59.2894 24.3758C59.2894 25.328 59.4131 26.1259 59.6609 26.7693C59.9137 27.4076 60.2779 27.8888 60.7535 28.213C61.2292 28.532 61.8014 28.6917 62.4704 28.6917C62.8519 28.6917 63.1939 28.6435 63.4962 28.5472C63.7984 28.446 64.0611 28.3016 64.284 28.1141C64.5071 27.9267 64.6879 27.7014 64.8267 27.438C64.9703 27.1694 65.067 26.868 65.1164 26.5337L69.3085 26.5641C69.2589 27.2227 69.0781 27.8937 68.766 28.5776C68.4537 29.2565 68.0102 29.8846 67.4354 30.4621C66.8655 31.0345 66.1595 31.4956 65.3171 31.845C64.4749 32.1946 63.4962 32.3694 62.3812 32.3694C60.9839 32.3694 59.7304 32.0628 58.6205 31.45C57.5153 30.837 56.6409 29.9353 55.9967 28.7449C55.3574 27.5544 55.0378 26.0981 55.0378 24.3758C55.0378 22.6433 55.365 21.1843 56.019 19.999C56.6731 18.8085 57.5551 17.9094 58.665 17.3015C59.775 16.6886 61.0136 16.3821 62.3812 16.3821C63.3425 16.3821 64.227 16.5163 65.0347 16.7848C65.8424 17.0533 66.5509 17.4459 67.1604 17.9626C67.7699 18.4742 68.2605 19.1049 68.632 19.8546C69.0037 20.6043 69.2292 21.463 69.3085 22.4306ZM71.1834 32.1565V16.5949H82.1538V19.999H75.3159V22.6736H81.5891V26.0777H75.3159V28.7524H82.1241V32.1565H71.1834ZM97.3741 16.5949V32.1565H93.9254L88.4251 23.9806H88.336V32.1565H84.2035V16.5949H87.7116L93.1225 24.7404H93.2414V16.5949H97.3741ZM98.9126 19.999V16.5949H112.143V19.999H107.564V32.1565H103.491V19.999H98.9126ZM113.698 32.1565V16.5949H124.668V19.999H117.83V22.6736H124.104V26.0777H117.83V28.7524H124.639V32.1565H113.698ZM126.718 32.1565V16.5949H133.288C134.418 16.5949 135.407 16.8051 136.254 17.2255C137.101 17.646 137.76 18.2513 138.231 19.0416C138.702 19.8318 138.937 20.7791 138.937 21.8834C138.937 22.9978 138.694 23.9376 138.209 24.7025C137.728 25.4673 137.052 26.0448 136.18 26.4349C135.313 26.8249 134.299 27.0201 133.14 27.0201H129.215V23.7375H132.307C132.793 23.7375 133.207 23.6767 133.549 23.555C133.895 23.4285 134.16 23.2283 134.344 22.9548C134.532 22.6813 134.626 22.3242 134.626 21.8834C134.626 21.4377 134.532 21.0754 134.344 20.7968C134.16 20.5131 133.895 20.3054 133.549 20.1737C133.207 20.037 132.793 19.9686 132.307 19.9686H130.85V32.1565H126.718ZM135.637 25.0141L139.443 32.1565H134.953L131.237 25.0141H135.637Z" fill="#E30513"/>
<path d="M140.699 16.5949H145.842L149.38 25.4091H149.559L153.096 16.5949H158.24V32.1565H154.196V23.16H154.078L150.688 32.035H148.25L144.861 23.0992H144.742V32.1565H140.699V16.5949ZM174.945 24.3758C174.945 26.1081 174.615 27.5696 173.956 28.7601C173.297 29.9453 172.408 30.8447 171.288 31.4575C170.168 32.0654 168.919 32.3694 167.542 32.3694C166.154 32.3694 164.901 32.0628 163.781 31.45C162.666 30.8318 161.779 29.9301 161.12 28.7449C160.466 27.5544 160.139 26.0981 160.139 24.3758C160.139 22.6433 160.466 21.1843 161.12 19.999C161.779 18.8085 162.666 17.9094 163.781 17.3015C164.901 16.6886 166.154 16.3821 167.542 16.3821C168.919 16.3821 170.168 16.6886 171.288 17.3015C172.408 17.9094 173.297 18.8085 173.956 19.999C174.615 21.1843 174.945 22.6433 174.945 24.3758ZM170.693 24.3758C170.693 23.4437 170.572 22.6584 170.329 22.0202C170.091 21.3768 169.737 20.8905 169.266 20.5613C168.8 20.2269 168.226 20.0598 167.542 20.0598C166.858 20.0598 166.281 20.2269 165.81 20.5613C165.344 20.8905 164.99 21.3768 164.747 22.0202C164.509 22.6584 164.39 23.4437 164.39 24.3758C164.39 25.3079 164.509 26.0955 164.747 26.7389C164.99 27.3772 165.344 27.8634 165.81 28.1978C166.281 28.5271 166.858 28.6917 167.542 28.6917C168.226 28.6917 168.8 28.5271 169.266 28.1978C169.737 27.8634 170.091 27.3772 170.329 26.7389C170.572 26.0955 170.693 25.3079 170.693 24.3758ZM190.027 16.5949V32.1565H186.578L181.078 23.9806H180.989V32.1565H176.857V16.5949H180.365L185.776 24.7404H185.895V16.5949H190.027ZM196.114 16.5949V32.1565H191.982V16.5949H196.114ZM197.657 19.999V16.5949H210.887V19.999H206.308V32.1565H202.235V19.999H197.657ZM226.474 24.3758C226.474 26.1081 226.143 27.5696 225.484 28.7601C224.826 29.9453 223.937 30.8447 222.817 31.4575C221.697 32.0654 220.448 32.3694 219.071 32.3694C217.683 32.3694 216.429 32.0628 215.309 31.45C214.194 30.8318 213.308 29.9301 212.649 28.7449C211.994 27.5544 211.668 26.0981 211.668 24.3758C211.668 22.6433 211.994 21.1843 212.649 19.999C213.308 18.8085 214.194 17.9094 215.309 17.3015C216.429 16.6886 217.683 16.3821 219.071 16.3821C220.448 16.3821 221.697 16.6886 222.817 17.3015C223.937 17.9094 224.826 18.8085 225.484 19.999C226.143 21.1843 226.474 22.6433 226.474 24.3758ZM222.223 24.3758C222.223 23.4437 222.101 22.6584 221.856 22.0202C221.62 21.3768 221.266 20.8905 220.795 20.5613C220.328 20.2269 219.755 20.0598 219.071 20.0598C218.386 20.0598 217.808 20.2269 217.338 20.5613C216.873 20.8905 216.519 21.3768 216.276 22.0202C216.038 22.6584 215.918 23.4437 215.918 24.3758C215.918 25.3079 216.038 26.0955 216.276 26.7389C216.519 27.3772 216.873 27.8634 217.338 28.1978C217.808 28.5271 218.386 28.6917 219.071 28.6917C219.755 28.6917 220.328 28.5271 220.795 28.1978C221.266 27.8634 221.62 27.3772 221.856 26.7389C222.101 26.0955 222.223 25.3079 222.223 24.3758ZM228.385 32.1565V16.5949H234.955C236.085 16.5949 237.075 16.8051 237.92 17.2255C238.768 17.646 239.427 18.2513 239.898 19.0416C240.369 19.8318 240.604 20.7791 240.604 21.8834C240.604 22.9978 240.361 23.9376 239.875 24.7025C239.396 25.4673 238.72 26.0448 237.847 26.4349C236.981 26.8249 235.965 27.0201 234.806 27.0201H230.881V23.7375H233.975C234.461 23.7375 234.873 23.6767 235.216 23.555C235.561 23.4285 235.827 23.2283 236.011 22.9548C236.2 22.6813 236.294 22.3242 236.294 21.8834C236.294 21.4377 236.2 21.0754 236.011 20.7968C235.827 20.5131 235.561 20.3054 235.216 20.1737C234.873 20.037 234.461 19.9686 233.975 19.9686H232.518V32.1565H228.385ZM237.305 25.0141L241.11 32.1565H236.621L232.903 25.0141H237.305ZM246.498 16.5949V32.1565H242.366V16.5949H246.498ZM261.628 16.5949V32.1565H258.179L252.678 23.9806H252.59V32.1565H248.457V16.5949H251.964L257.375 24.7404H257.494V16.5949H261.628ZM273.468 21.7315C273.403 21.463 273.301 21.2274 273.163 21.0248C273.024 20.8171 272.851 20.6423 272.644 20.5005C272.438 20.3536 272.202 20.2446 271.93 20.1737C271.662 20.0978 271.367 20.0598 271.044 20.0598C270.352 20.0598 269.759 20.2295 269.268 20.5689C268.782 20.9083 268.411 21.3971 268.154 22.0354C267.901 22.6736 267.775 23.4437 267.775 24.3454C267.775 25.2572 267.897 26.0373 268.139 26.6856C268.382 27.334 268.742 27.8304 269.224 28.1749C269.705 28.5194 270.301 28.6917 271.015 28.6917C271.643 28.6917 272.166 28.5979 272.583 28.4105C273.004 28.223 273.32 27.9571 273.527 27.6126C273.736 27.2683 273.839 26.863 273.839 26.397L274.552 26.473H271.074V23.4638H277.824V25.6218C277.824 27.0402 277.529 28.2534 276.938 29.2615C276.355 30.2646 275.547 31.0345 274.515 31.5715C273.489 32.1035 272.313 32.3694 270.986 32.3694C269.504 32.3694 268.202 32.0476 267.082 31.4044C265.963 30.761 265.088 29.8441 264.46 28.6536C263.834 27.4632 263.522 26.0474 263.522 24.4062C263.522 23.1193 263.713 21.9797 264.096 20.9868C264.481 19.9939 265.017 19.1555 265.701 18.4717C266.383 17.7828 267.175 17.2635 268.072 16.914C268.968 16.5594 269.929 16.3821 270.955 16.3821C271.857 16.3821 272.694 16.5138 273.468 16.7772C274.245 17.0356 274.931 17.4053 275.526 17.8866C276.126 18.3628 276.61 18.9276 276.976 19.5811C277.342 20.2345 277.566 20.9513 277.644 21.7315H273.468Z" fill="#335783"/>
</svg>
